<?xml version="1.0" standalone="no"?>
<!DOCTYPE svg PUBLIC "-//W3C//DTD SVG 20010904//EN"
 "http://www.w3.org/TR/2001/REC-SVG-20010904/DTD/svg10.dtd">
<svg version="1.0" xmlns="http://www.w3.org/2000/svg"
 width="477.000000pt" height="306.000000pt" viewBox="0 0 477.000000 306.000000"
 preserveAspectRatio="xMidYMid meet">

<g transform="translate(0.000000,306.000000) scale(0.100000,-0.100000)"
fill="#000000" stroke="none">
<path d="M700 3035 c0 -22 30 -66 68 -99 7 -6 32 -30 56 -52 25 -23 52 -44 61
-47 23 -9 17 -70 -6 -64 -22 6 -61 -35 -58 -59 1 -11 -1 -27 -5 -36 -7 -16
-11 -16 -41 -4 -18 8 -36 12 -39 8 -3 -3 -6 0 -6 6 0 16 -48 38 -87 40 -23 2
-33 -2 -33 -13 0 -14 -54 -33 -136 -50 -50 -10 -55 -37 -25 -132 14 -46 32
-83 39 -83 6 0 12 -11 12 -23 0 -22 -4 -24 -60 -26 -46 -2 -71 4 -117 25 -32
15 -60 30 -63 33 -3 4 -32 15 -65 25 -33 10 -67 24 -75 31 -40 34 -57 28 -89
-28 l-31 -54 0 -1117 0 -1117 30 21 c31 22 112 50 145 50 11 0 -7 -13 -40 -28
-33 -15 -77 -37 -98 -49 l-37 -22 0 -86 0 -85 921 0 922 0 43 35 c51 42 67 45
54 9 -15 -39 -13 -44 23 -44 33 0 34 2 58 72 31 92 59 121 299 303 102 77 190
143 195 147 6 5 41 33 79 63 91 74 103 80 115 58 5 -10 8 -29 6 -43 -2 -14 -9
-65 -16 -115 -12 -88 -31 -145 -48 -145 -5 0 -40 -24 -77 -53 -38 -28 -79 -59
-90 -67 -12 -8 -86 -61 -164 -117 l-143 -103 66 0 c40 0 71 5 79 13 14 13 171
133 269 205 32 23 60 38 63 34 5 -8 -16 -176 -29 -229 -5 -21 -2 -23 40 -23
l45 0 0 46 c0 26 5 98 12 161 12 114 12 115 47 144 93 75 320 249 379 291 37
27 74 54 82 61 8 7 76 57 150 111 139 101 156 117 146 142 -7 19 -18 18 -47
-6 -42 -36 -172 -132 -283 -210 -60 -41 -133 -94 -164 -118 -30 -23 -59 -42
-64 -42 -5 0 -27 -17 -51 -39 -44 -40 -149 -111 -166 -111 -10 0 -5 134 10
220 7 44 17 63 47 92 20 20 42 37 49 38 7 0 16 6 20 13 4 7 35 33 68 58 33 24
88 66 122 94 59 47 88 70 193 147 25 19 80 56 122 83 55 36 77 56 78 71 0 11
-2 23 -6 26 -4 5 -167 -114 -343 -252 -148 -115 -303 -230 -312 -230 -5 0 -28
-17 -52 -38 -23 -21 -71 -59 -107 -85 -106 -76 -236 -170 -266 -194 -16 -12
-54 -40 -84 -62 -30 -22 -82 -61 -116 -86 -33 -25 -66 -45 -73 -45 -15 0 -7
49 15 94 8 16 14 35 14 43 0 7 11 35 24 62 19 36 51 70 133 135 59 48 117 95
128 104 11 9 27 21 36 27 37 23 144 108 147 116 2 5 8 9 14 9 5 0 29 15 52 34
23 19 54 40 69 45 36 14 42 0 34 -79 -5 -39 -3 -61 5 -66 7 -4 8 -3 4 4 -4 6
1 51 9 99 15 80 21 92 58 131 43 45 136 112 154 112 6 0 13 7 17 15 3 8 12 15
21 15 8 0 15 4 15 10 0 5 9 14 19 20 16 8 21 5 33 -20 7 -17 16 -30 20 -30 12
0 15 25 6 49 -11 29 -1 68 14 53 6 -6 15 -20 22 -33 17 -33 31 -23 27 20 -3
48 15 78 69 111 22 14 40 28 40 32 0 5 6 8 13 8 6 0 32 17 56 38 l43 37 -11
43 c-7 23 -15 42 -20 42 -4 0 -22 -14 -40 -30 -17 -17 -31 -27 -31 -24 0 4
-12 -5 -26 -20 -38 -37 -92 -69 -105 -61 -7 5 -9 35 -4 99 4 50 9 116 10 146
3 70 24 171 40 188 19 21 55 -31 55 -79 0 -50 15 -57 50 -24 32 31 60 28 60
-5 0 -28 40 -80 62 -80 9 0 25 11 34 25 15 23 21 25 63 20 25 -4 65 -14 88
-22 22 -8 50 -12 60 -9 24 8 49 -18 56 -59 3 -16 11 -49 18 -73 11 -34 11 -47
1 -60 -35 -51 -40 -66 -28 -102 6 -19 18 -36 26 -38 27 -5 43 41 53 143 13
149 24 242 26 223 0 -9 5 -18 11 -20 5 -1 12 -65 16 -140 7 -135 16 -170 27
-105 7 37 1 232 -8 288 -4 21 -4 48 0 59 7 21 7 21 38 2 28 -16 110 -46 200
-72 45 -14 31 9 -20 31 -151 65 -233 116 -233 145 0 18 50 0 68 -23 12 -17 87
-28 105 -16 5 3 -3 15 -19 28 -37 30 -24 45 41 45 71 0 138 40 129 77 -5 18 1
30 22 48 16 14 32 25 37 25 4 0 7 5 7 11 0 6 -7 8 -16 5 -9 -3 -34 -9 -55 -12
-34 -6 -41 -4 -45 13 -4 16 -16 19 -67 21 -33 2 -63 4 -65 7 -2 2 -1 13 3 24
5 18 15 21 55 21 27 0 51 -4 54 -9 4 -5 20 -5 41 2 25 7 42 7 60 -1 31 -14
115 -16 115 -3 0 20 -46 41 -90 41 -36 1 -52 7 -85 35 -62 53 -45 58 133 41
83 -8 156 -17 161 -20 17 -11 61 5 61 23 0 14 -10 16 -69 13 -56 -3 -77 1
-112 19 -36 19 -64 24 -149 27 -71 2 -108 8 -115 17 -6 7 -30 18 -53 24 -31 9
-42 17 -42 31 0 13 7 20 20 20 23 0 25 8 6 33 -8 10 -11 27 -8 39 5 20 2 21
-40 15 -48 -7 -92 9 -115 42 -17 25 -80 35 -118 20 -50 -19 -92 -27 -106 -19
-12 7 -99 0 -171 -13 -9 -2 -34 -15 -55 -30 -58 -40 -90 -49 -118 -34 -28 14
-64 62 -102 136 -15 29 -52 79 -83 110 -30 31 -69 73 -86 92 -61 69 -150 147
-189 167 -50 25 -133 42 -216 45 -59 2 -68 -1 -104 -29 -22 -17 -48 -34 -57
-37 -26 -9 -22 -36 7 -47 35 -13 31 -29 -5 -25 -22 3 -37 -3 -53 -19 -13 -13
-33 -27 -45 -30 -47 -15 -10 -55 53 -56 35 -1 37 -2 17 -11 -13 -5 -49 -12
-80 -15 -32 -4 -63 -11 -69 -17 -9 -7 -13 -5 -13 6 0 9 -13 18 -30 22 -17 4
-36 15 -43 26 -6 10 -18 19 -25 19 -9 0 -11 7 -7 20 4 11 2 20 -4 20 -6 0 -11
-4 -11 -10 0 -5 -7 -7 -15 -4 -17 7 -21 54 -4 54 6 0 18 -4 28 -10 15 -7 21
-4 30 17 12 25 11 26 -20 19 -17 -3 -36 -6 -40 -6 -5 0 -14 -11 -19 -25 -12
-33 -30 -32 -30 1 l0 27 -66 -6 c-60 -6 -75 -12 -151 -64 -46 -32 -96 -66
-110 -75 -15 -9 -37 -29 -50 -44 -22 -26 -23 -27 -23 -5 0 29 -24 22 -28 -8
-2 -14 -20 -33 -48 -49 -24 -15 -46 -35 -49 -44 -3 -9 -19 -19 -35 -23 -16 -4
-32 -15 -35 -26 -4 -10 -18 -26 -33 -33 -15 -8 -42 -28 -60 -45 -49 -46 -79
-50 -107 -15 -13 16 -30 40 -37 54 -7 13 -20 32 -28 41 -8 8 -35 43 -59 77
-45 63 -142 165 -178 185 -11 7 -38 22 -59 33 -51 29 -67 48 -98 117 l-25 57
-45 0 c-42 0 -46 -2 -46 -25z m1935 -131 c14 -14 24 -29 20 -32 -3 -3 -20 8
-38 26 -17 18 -26 32 -20 32 7 0 24 -12 38 -26z m-118 0 c-3 -3 -12 -4 -19 -1
-8 3 -5 6 6 6 11 1 17 -2 13 -5z m-1 -79 c4 -8 15 -15 25 -15 12 0 19 -7 19
-20 0 -13 -7 -20 -20 -20 -11 0 -20 5 -20 10 0 6 -5 10 -11 10 -12 0 -38 29
-39 43 0 14 41 7 46 -8z m265 -104 c13 -32 8 -34 -22 -8 -13 12 -25 36 -27 52
l-3 30 21 -25 c12 -14 25 -36 31 -49z m-632 30 c7 -5 10 -14 7 -20 -4 -6 -2
-11 4 -11 7 0 10 -14 7 -37 -3 -33 -7 -38 -27 -35 -27 3 -70 46 -70 69 0 32
49 53 79 34z m535 -6 c3 -9 0 -15 -8 -15 -8 0 -16 7 -20 15 -3 9 0 15 8 15 8
0 16 -7 20 -15z m-846 -52 c-14 -16 -35 -49 -47 -76 -13 -26 -26 -45 -31 -42
-4 3 -10 -2 -14 -10 -10 -26 -128 -12 -147 18 -10 14 53 73 95 91 20 8 36 20
36 26 0 6 4 8 10 5 5 -3 18 -1 27 4 10 6 36 11 57 11 l40 0 -26 -27z m707 -3
c3 -5 2 -10 -4 -10 -5 0 -13 5 -16 10 -3 6 -2 10 4 10 5 0 13 -4 16 -10z m-59
-54 c18 -19 18 -46 -1 -46 -8 0 -15 -4 -15 -10 0 -5 7 -10 16 -10 14 0 14 -3
4 -15 -16 -19 -30 -19 -30 -1 0 16 -37 28 -46 15 -3 -5 -10 -9 -15 -9 -15 0 0
41 24 68 24 25 42 28 63 8z m-736 -100 c0 -2 -8 -10 -17 -17 -16 -13 -17 -12
-4 4 13 16 21 21 21 13z m1807 -2 c-3 -3 -12 -4 -19 -1 -8 3 -5 6 6 6 11 1 17
-2 13 -5z m273 -34 c13 -9 13 -10 0 -10 -8 0 -22 5 -30 10 -13 9 -13 10 0 10
8 0 22 -5 30 -10z m-1085 -51 c4 -6 15 -13 26 -17 16 -6 17 -10 5 -32 -7 -14
-18 -24 -24 -22 -7 1 -12 -2 -12 -7 0 -5 -3 -16 -6 -24 -5 -14 19 -47 36 -47
4 0 15 16 24 35 20 42 25 44 18 8 -6 -39 -27 -52 -70 -46 -54 9 -70 41 -48 96
7 18 16 40 19 50 7 19 22 22 32 6z m-1715 -69 c0 -5 6 -10 14 -10 8 0 24 -16
36 -35 12 -19 29 -35 37 -35 15 0 15 -2 0 -18 -10 -11 -13 -22 -7 -32 5 -8 6
-18 4 -22 -3 -4 -1 -8 4 -8 5 0 14 10 20 23 6 12 11 17 11 10 1 -7 7 -10 14
-8 25 10 76 12 79 3 2 -5 37 -10 79 -12 42 -1 82 -7 90 -12 21 -13 59 -35 108
-60 24 -13 50 -29 57 -35 22 -18 17 -54 -10 -69 -20 -10 -29 -10 -57 4 -17 9
-36 16 -41 16 -16 0 -8 -37 17 -70 27 -36 33 -91 13 -108 -7 -5 -30 -16 -52
-23 -43 -15 -42 -14 -51 -82 -5 -37 -10 -47 -23 -45 -34 5 -72 -13 -86 -41
-32 -62 -120 -42 -201 44 l-50 53 -67 -2 c-54 -2 -72 -7 -91 -24 -13 -12 -27
-22 -31 -22 -4 0 -21 -13 -38 -30 -16 -16 -36 -30 -44 -30 -8 0 -14 -4 -14 -9
0 -13 -58 -32 -65 -20 -4 5 -15 9 -26 9 -10 0 -19 7 -19 15 0 8 -5 15 -11 15
-5 0 -15 14 -20 30 -7 19 -18 30 -30 30 -10 0 -19 5 -19 10 0 6 -3 9 -7 8 -10
-4 -12 12 -5 30 2 7 0 24 -7 38 -6 14 -11 31 -11 38 0 18 50 67 61 60 10 -6
95 23 117 39 23 18 14 69 -20 104 -18 18 -27 33 -21 33 6 0 14 -6 16 -12 4 -8
8 -4 12 10 4 12 14 22 21 22 8 0 14 4 14 9 0 5 8 12 18 15 9 4 33 15 52 25 19
11 49 19 66 19 40 0 71 16 79 42 3 11 11 20 16 20 5 0 14 12 19 26 6 15 14 22
22 18 7 -4 8 -3 4 5 -4 6 -11 9 -15 7 -11 -7 -8 38 3 46 16 11 36 10 36 -2z
m1564 -64 c-4 -9 -12 -15 -20 -12 -8 3 -15 -6 -19 -25 -11 -48 -54 -31 -51 21
1 21 6 25 27 22 15 -1 32 5 39 13 16 19 33 5 24 -19z m-738 -120 c24 -5 33
-15 42 -42 10 -33 8 -76 -4 -96 -16 -26 -94 17 -94 52 0 10 -4 22 -10 25 -10
6 -14 58 -5 67 6 6 29 4 71 -6z m74 -266 c0 -5 -4 -10 -9 -10 -6 0 -13 5 -16
10 -3 6 1 10 9 10 9 0 16 -4 16 -10z m-238 -107 c10 -9 18 -30 18 -49 0 -42
-34 -69 -105 -84 -30 -6 -57 -15 -59 -19 -7 -10 -86 -13 -84 -3 3 14 -14 42
-26 42 -6 0 -12 9 -13 20 -1 11 2 20 7 20 5 0 10 10 12 23 3 19 9 22 45 22 30
0 47 6 63 23 26 28 113 32 142 5z m1138 -129 c7 -18 15 -24 26 -20 12 5 14 1
8 -17 -12 -37 -34 -66 -70 -88 -35 -21 -42 -35 -23 -41 6 -2 3 -21 -10 -51
-14 -32 -18 -54 -12 -65 5 -9 16 -35 26 -57 l17 -39 19 24 c10 14 19 30 19 35
0 17 94 205 103 205 14 0 7 -87 -9 -101 -25 -20 -46 -67 -33 -74 6 -4 17 1 24
11 8 11 15 14 15 8 0 -6 -9 -21 -20 -34 -11 -13 -20 -27 -20 -32 0 -8 23 -12
49 -8 10 1 12 -7 7 -32 -4 -18 -8 -49 -9 -68 -2 -35 -25 -80 -40 -80 -5 0 -68
-46 -140 -103 -195 -151 -206 -160 -247 -187 -21 -14 -57 -40 -81 -58 -24 -18
-73 -55 -109 -82 -36 -27 -85 -61 -110 -76 -25 -16 -85 -61 -135 -101 -80 -65
-107 -79 -139 -74 -4 1 -15 -4 -23 -10 -22 -19 -63 -20 -70 -2 -4 9 0 21 8 27
8 6 27 48 42 93 l28 82 -25 78 c-13 43 -27 101 -30 129 -4 27 -15 76 -27 108
-11 32 -18 65 -15 72 3 7 -2 28 -11 46 -10 19 -20 74 -24 128 -4 52 -12 142
-18 199 -6 57 -8 108 -5 113 6 9 94 11 414 9 129 -1 194 12 207 42 7 15 27 26
59 35 27 7 72 24 99 37 52 26 133 42 223 44 48 1 53 -1 62 -25z m160 -83 c0
-6 -4 -13 -10 -16 -5 -3 -10 1 -10 9 0 9 5 16 10 16 6 0 10 -4 10 -9z m-2122
-770 c57 -30 122 -111 122 -151 0 -20 -18 -9 -24 14 -3 13 -25 45 -48 71 -34
37 -54 50 -97 61 -51 13 -60 12 -150 -11 -119 -31 -213 -78 -246 -121 -13 -18
-31 -39 -39 -47 -8 -8 -19 -30 -24 -48 -9 -30 -10 -31 -11 -8 -1 30 46 107 83
136 75 59 252 121 349 122 29 1 63 -7 85 -18z m-79 -30 c9 -15 6 -22 -15 -36
-14 -9 -23 -19 -20 -22 3 -4 15 2 25 11 11 10 25 16 31 14 6 -2 -9 -18 -33
-36 -50 -35 -67 -41 -46 -15 12 15 12 16 -3 10 -10 -3 -25 -4 -33 -1 -16 7
-21 34 -6 34 6 0 25 14 43 30 38 35 44 36 57 11z m55 -67 c24 -23 19 -43 -11
-55 -16 -6 -36 -18 -45 -26 -10 -9 -18 -11 -18 -5 0 6 5 14 10 17 20 13 10 27
-15 21 -14 -4 -25 -4 -25 -2 0 4 81 66 86 66 2 0 10 -7 18 -16z m-240 -39
c-37 -30 -64 -38 -64 -19 0 8 -8 14 -17 15 -10 0 9 10 42 22 66 25 83 17 39
-18z m69 -10 c4 -8 2 -17 -3 -20 -4 -3 -10 1 -13 7 -3 10 -8 10 -17 2 -9 -9
-9 -13 0 -19 8 -5 1 -14 -19 -26 -31 -19 -60 -27 -32 -10 8 5 15 19 16 30 2
37 57 66 68 36z m226 -19 c23 -28 -53 -78 -95 -62 -24 9 -12 28 32 53 46 27
48 27 63 9z m-309 -10 c0 -3 -4 -8 -10 -11 -5 -3 -10 -1 -10 4 0 6 5 11 10 11
6 0 10 -2 10 -4z m137 -43 c-4 -3 -13 -1 -19 5 -16 16 -28 15 -28 -3 0 -9 -9
-15 -25 -15 -16 0 -25 -6 -25 -16 0 -8 -4 -12 -10 -9 -17 10 -12 20 32 53 42
32 42 32 62 12 11 -10 17 -23 13 -27z m-208 -12 c-1 -13 -2 -13 -6 2 -2 9 -14
17 -25 17 -13 0 -18 -5 -15 -14 4 -10 1 -13 -9 -9 -20 8 -17 18 9 30 26 12 48
0 46 -26z m217 -26 c-11 -8 -25 -15 -30 -15 -6 0 -2 7 8 15 11 8 25 15 30 15
6 0 2 -7 -8 -15z m-171 -6 c11 -16 1 -19 -13 -3 -7 8 -8 14 -3 14 5 0 13 -5
16 -11z m-50 -9 c3 -6 -1 -7 -9 -4 -18 7 -21 14 -7 14 6 0 13 -4 16 -10z
m1565 -152 c0 -15 -26 -90 -39 -116 -5 -9 -17 -38 -26 -65 -9 -26 -26 -52 -38
-59 -12 -6 -62 -41 -112 -77 -102 -74 -135 -95 -135 -84 0 15 54 149 74 184
19 33 95 104 211 196 42 34 65 41 65 21z m-500 -148 c0 -5 -5 -10 -11 -10 -5
0 -7 5 -4 10 3 6 8 10 11 10 2 0 4 -4 4 -10z"/>
<path d="M1302 1991 c-8 -4 -14 -12 -14 -17 -1 -15 -24 -44 -30 -38 -4 3 -24
0 -47 -7 -48 -14 -54 -40 -17 -64 34 -23 76 -5 76 32 1 24 2 25 11 11 10 -18
37 -22 75 -12 29 8 23 48 -11 80 -30 28 -26 26 -43 15z"/>
<path d="M755 800 c-3 -5 1 -10 10 -10 9 0 13 5 10 10 -3 6 -8 10 -10 10 -2 0
-7 -4 -10 -10z"/>
<path d="M709 764 c-12 -14 -11 -16 5 -13 11 2 21 10 24 17 5 17 -13 15 -29
-4z"/>
<path d="M810 714 c0 -9 5 -14 12 -12 18 6 21 28 4 28 -9 0 -16 -7 -16 -16z"/>
<path d="M838 652 c-32 -19 -36 -32 -10 -32 21 0 62 27 62 41 0 13 -21 10 -52
-9z"/>
<path d="M4335 2999 c-10 -15 1 -23 20 -15 9 3 13 10 10 16 -8 13 -22 13 -30
-1z"/>
<path d="M4761 3005 c-1 -5 -4 -23 -5 -39 -1 -16 -7 -31 -14 -34 -7 -2 -12
-25 -12 -60 0 -90 -6 -102 -47 -99 -46 3 -65 -23 -40 -51 10 -11 15 -26 11
-36 -5 -13 1 -16 39 -16 25 0 52 -3 61 -6 11 -4 16 -1 16 10 0 9 -7 19 -15 23
-14 5 -14 7 0 23 13 14 15 41 12 156 -1 76 -4 135 -6 129z"/>
<path d="M4311 2954 c0 -11 3 -14 6 -6 3 7 2 16 -1 19 -3 4 -6 -2 -5 -13z"/>
<path d="M2333 2940 c-24 -10 -32 -40 -10 -40 6 0 23 -3 37 -7 23 -6 24 -5 10
11 -13 16 -12 20 5 32 18 14 18 14 -1 13 -10 0 -29 -4 -41 -9z"/>
<path d="M4270 2821 c0 -6 12 -11 26 -11 14 0 34 -5 45 -11 29 -15 130 -40
143 -35 14 5 -32 24 -104 43 -89 24 -110 26 -110 14z"/>
<path d="M4506 2761 c-4 -5 3 -15 15 -21 28 -15 34 -7 10 14 -12 11 -21 13
-25 7z"/>
<path d="M2943 643 c-7 -3 -13 -17 -13 -31 l1 -27 15 28 c17 31 16 37 -3 30z"/>
<path d="M3495 479 c-55 -40 -131 -93 -170 -118 -38 -25 -74 -49 -80 -54 -105
-80 -146 -110 -177 -127 -21 -11 -38 -25 -38 -30 0 -6 -4 -10 -10 -10 -8 0
-97 -60 -145 -98 -5 -4 -21 -15 -35 -25 -24 -17 -23 -17 50 -16 73 0 77 1 135
44 33 24 101 74 152 110 51 36 95 70 98 75 3 5 29 25 58 44 29 19 85 59 124
88 40 29 95 67 123 83 35 21 50 36 50 52 0 30 -10 53 -24 53 -7 0 -57 -32
-111 -71z"/>
<path d="M3295 20 c-3 -5 -1 -10 4 -10 6 0 11 5 11 10 0 6 -2 10 -4 10 -3 0
-8 -4 -11 -10z"/>
<path d="M3208 3 c7 -3 16 -2 19 1 4 3 -2 6 -13 5 -11 0 -14 -3 -6 -6z"/>
</g>
</svg>
